<?xml version="1.0" standalone="no"?>
<!DOCTYPE svg PUBLIC "-//W3C//DTD SVG 20010904//EN"
 "http://www.w3.org/TR/2001/REC-SVG-20010904/DTD/svg10.dtd">
<svg version="1.0" xmlns="http://www.w3.org/2000/svg"
 width="48.000000pt" height="48.000000pt" viewBox="0 0 48.000000 48.000000"
 preserveAspectRatio="xMidYMid meet">

<g transform="translate(0.000000,48.000000) scale(0.100000,-0.100000)"
fill="#000000" stroke="none">
<path d="M216 444 c-20 -19 -20 -25 -1 -50 22 -29 18 -41 -17 -48 -47 -9 -95
-41 -117 -77 -19 -31 -19 -31 -23 -8 -1 13 -10 24 -18 24 -20 0 -28 -154 -8
-170 7 -6 18 -19 24 -30 15 -26 60 -36 179 -37 110 -1 183 14 192 40 4 9 13
22 20 27 20 15 14 170 -7 170 -8 0 -17 -11 -20 -24 l-5 -23 -15 27 c-15 28
-77 68 -122 79 -19 4 -28 13 -28 26 0 11 4 20 9 20 15 0 21 30 11 51 -13 23
-33 24 -54 3z m-28 -236 c15 -15 15 -51 0 -66 -15 -15 -51 -15 -66 0 -7 7 -12
21 -12 33 0 12 5 26 12 33 7 7 21 12 33 12 12 0 26 -5 33 -12z m170 0 c28 -28
7 -78 -33 -78 -40 0 -61 50 -33 78 15 15 51 15 66 0z"/>
<path d="M141 186 c-9 -10 -8 -16 3 -25 10 -9 16 -8 25 3 9 10 8 16 -3 25 -10
9 -16 8 -25 -3z"/>
<path d="M311 186 c-9 -10 -8 -16 3 -25 10 -9 16 -8 25 3 9 10 8 16 -3 25 -10
9 -16 8 -25 -3z"/>
</g>
</svg>
